<svg xmlns="http://www.w3.org/2000/svg" viewBox="0 0 58.09 77.94"><defs><style>.cls-1{fill:#ffa100;}.cls-2{fill:#ff4b00;}.cls-3{fill:#2737b5;}</style></defs><g id="Layer_2" data-name="Layer 2"><g id="Capa_2" data-name="Capa 2"><path class="cls-1" d="M35,14a9.4,9.4,0,0,1-7,3.73l-.49,0c-1.05,0-5.25,0-7-.1-4.35-.22-6.64.83-7.79,1.71a.18.18,0,0,1-.07.05l-.08,0a.22.22,0,0,1-.22-.22.15.15,0,0,1,0-.09L19.38,5A9,9,0,0,1,35.43,5,7.73,7.73,0,0,1,35,14"/><path class="cls-2" d="M29.5,50.85c-4.5-1.5-9.93.47-12.85,4.94A9.11,9.11,0,0,1,5,59,9.26,9.26,0,0,1,.64,47.28a8.38,8.38,0,0,1,1-2,6.63,6.63,0,0,1,1.61-1.56c4.15-3.2,10.76-3.26,17.18-.35a42.4,42.4,0,0,1,9.52,6.76.44.44,0,0,1-.42.75"/><path class="cls-2" d="M19.2,76.51,13.82,64.63a1,1,0,0,0-1.82,0L6.52,76.51c-.24.57-.17,1,.21,1.29a.86.86,0,0,0,.48.14A1.15,1.15,0,0,0,8,77.58a14.28,14.28,0,0,1,2.4-1.87,7.83,7.83,0,0,1,2.56-1,7.15,7.15,0,0,1,3.22,0l1.17,2.61a1,1,0,0,0,1.33.5h0A1,1,0,0,0,19.2,76.51Zm-3.9-3.78a9.18,9.18,0,0,0-2.65.17,11.74,11.74,0,0,0-2.79,1l3-6.46Z"/><path class="cls-2" d="M36.5,70.48a3.33,3.33,0,0,0,1.15-3.2c-.3-2.08-1.81-3.23-4.27-3.23H28.25a1,1,0,0,0-1,1V76.93a1,1,0,0,0,.3.71,1,1,0,0,0,.7.29h6a3.89,3.89,0,0,0,4.22-3.59h0A3.84,3.84,0,0,0,36.5,70.48Zm-1.19-1.34a1.88,1.88,0,0,1-1.32.64l-1.31,0a1,1,0,0,0-1,1,1,1,0,0,0,1,1l1.37,0h.05a2.47,2.47,0,0,1,1.9.65,2.15,2.15,0,0,1,.43,1.73h0c-.11,1.18-.84,1.75-2.22,1.75h-5V66h4.13c1.46,0,2.16.46,2.29,1.48A2.19,2.19,0,0,1,35.31,69.14Z"/><path class="cls-2" d="M47.58,67.64a1,1,0,0,0-1,1v8.29a1,1,0,1,0,2,0V68.64A1,1,0,0,0,47.58,67.64Z"/><path class="cls-2" d="M47.58,64.89a1,1,0,0,0-1,1v0a1,1,0,0,0,2,0v0A1,1,0,0,0,47.58,64.89Z"/><path class="cls-3" d="M52.4,58.8c-4.72,2.35-9,1.08-13.18-3.56-1.53-1.71-3.92-3.91-4.13-4.08l0,0c-5.24-5.1-10.19-8.58-13.24-10a25.39,25.39,0,0,0-10.32-2.39A14.17,14.17,0,0,0,1.62,42.3a.21.21,0,0,1-.16.06.21.21,0,0,1-.21-.22.29.29,0,0,1,0-.09C3.33,37.82,7,30.52,10.39,23.58c0,0,1.8-3.63,10.09-3.22,2.27.11,8,.1,8.31.1h0a10.8,10.8,0,0,0,8.24-4.29,8.58,8.58,0,0,0,1.72-6.12.44.44,0,0,1,.83-.21c4.89,9.84,17.06,34.37,17.67,35.79A10.29,10.29,0,0,1,52.4,58.8"/></g></g></svg>