<svg xmlns="http://www.w3.org/2000/svg" viewBox="0 0 816.69 845.52"><defs><style>.cls-1{fill:#494949;}.cls-1,.cls-6,.cls-8{stroke:#575757;}.cls-1,.cls-10,.cls-11,.cls-2,.cls-3,.cls-6,.cls-7,.cls-8,.cls-9{stroke-linecap:round;stroke-linejoin:round;stroke-width:0.69px;}.cls-2{fill:#364595;}.cls-2,.cls-3,.cls-7,.cls-9{stroke:#575856;}.cls-3{fill:#5c64aa;}.cls-12,.cls-4,.cls-5{fill:none;stroke-miterlimit:10;}.cls-4,.cls-5{stroke:#1d1d1b;}.cls-4{stroke-width:0.82px;}.cls-5{stroke-width:0.78px;}.cls-6{fill:#b2b2b2;}.cls-7{fill:#adadd7;}.cls-8{fill:#8c8c8c;}.cls-9{fill:#8586c0;}.cls-10{fill:#686868;stroke:#585858;}.cls-11{fill:#5c6595;stroke:#575857;}.cls-12{stroke:#f59e17;stroke-width:2px;}.cls-13{opacity:0.8;}.cls-14,.cls-15{font-size:30.7px;fill:#fff;font-family:Montserrat-Regular, Montserrat;}.cls-15{letter-spacing:0.01em;}.cls-16{letter-spacing:0em;}</style></defs><g id="Layer_2" data-name="Layer 2"><g id="Capa_1" data-name="Capa 1"><path class="cls-1" d="M239.41,353.94l-2,2.58-18.35,16-25.53,30.7-3,2.22-14.24,4.07-8.13,6.66-20.16,8s-31.92,11.74-38.29,13.67-41,29.12-41,29.12l3,1.67,6.94.15.68-3.06,3.76-1.52,4.15.56,4.16-2.37,10-.69.71-8s20.38-1.8,22.33-1.11,10.81,11.79,12.61,14.14-11.93,20.13-11.93,20.13l-4.29.69-16.09-1.39A24.17,24.17,0,0,1,94.14,489c-6.37.28-6.92-3.87-8.87-5.26s-5,3.06-9.29,4-22.05-9.57-22.05-9.57-31.48,17.2-34.25,19.42S17.6,502,17.6,502l-1,6.64s-1.39,1.39-5.26,2.5-7.77,12.35-7.22,18.59A137.85,137.85,0,0,0,7.2,546a29.46,29.46,0,0,1,6.24.84c3.46.83,1.24,5.12,1.24,5.12L9.42,560l-1.26,8-1,5.41L5.53,586.19v4.23l1.24,3.67,14.42.28.56-2.22h7.63l.55-1.73h6.39l.28,1.88h3.18l6.8-1.88s4-2.57,5.68-.9-.83,3.33-.83,3.33L27.3,608.24l52.42,53.12-13.59,2.91,1.67,25.25L63,700.25a10.4,10.4,0,0,0,1.21,10.55l2.32,3.08L75,719.25l5.6,3.85v1.59l4.25,3.51v3.33l-.2-.11-2.76-1.55s-14.24-10-19.24-13.32-5-3.33-5.36-7.22.56-3.88,2.22-6.46,1.85-2.6,2.22-7S64,690.11,64,690.11V679.56s-3.15.37-5-.92-1.11-5.73-7.4-13.13-25.34-21.82-30.14-30.33S6.84,608.75,2.57,597.83,1.46,582.3,1.46,582.3V533.1c0-3.87-.73-15.34,11.09-30.69s36.63-21.63,51.23-33.65,18.31-13.87,33.29-25.34,32.73-15.16,45.31-19.6S170.85,410,191,397.56s30.33-31.43,30.33-31.43l11.27-10.91,1.64-.31Z"/><path class="cls-2" d="M348.56,395.89v9.44h-6.47l-15.72,14.42v12.94l-5,13.92-16.78,31.62L311,500h4.62l-.73,10.53-3.52,2.22.18,7.78-1.47,1.29v4.44h3.7v4.07l-.25.2-4.2,3.31L284,572.5l-1.11-.2-1.85-1.47-1.66,4.63-15.16,28.47-.79.62L258,608.89l-3.2,2.55L253,612.93l-48,40.75,0,.07v0l-7,13.45-12.74-26.83s-.36-2.09-3.2-5.29a24.6,24.6,0,0,0-2.66-2.63l-.65-.57c-5.93-4.93-16.86-12.59-16.86-12.59l-1,1.48-.72,1.08-.49-.46-3.88-3.72-1.3-1.26,1.91-1.91.36-.36-8.25-8-.78,1.15-1,1.47,0-2.62,2.82-6.34.84-1.86-8.61-2.72.6-1.83L139.05,591l-1,2.71-6.93-3.25-3.44,6.42v2l-.15.26-1.65,2.79-.31.53,2.91,3.54-4,7.68s-3.71,2.66-3.86,3.66-1.43,4.24-2.66,5-2.47.65-3.46,1.58a40.81,40.81,0,0,0-5.49,5.64,47.91,47.91,0,0,0-4.25,6.86c-.44.65-3.69,1.39-5.67,3.36s-2.77,2-3,3.26c0,.06,0,.14,0,.24l-.08,0v.83c-.12,1.52-.18,3.66-.18,3.66l-3.42,0-.24,2.86-.74-.1v4H89.16v3.07l-.28.28v4.57l-2.27,2.27v4.53l-1,1v5.93H83.94v5h.73v.72H84v2.34h-.49v2h-1v1.93h-.68v2.32h1v5.85h-.83v23.29l-1.29,1.11v2.3L75,719.25l-8.51-5.37-2.32-3.08A10.4,10.4,0,0,1,63,700.25l4.82-10.73-1.67-25.25,13.59-2.91L27.3,608.24l24.13-15.39s2.5-1.66.83-3.33-5.68.9-5.68.9l-6.8,1.88H36.6l-.28-1.88H29.93l-.55,1.73H21.75l-.56,2.22-14.42-.28-1.24-3.67v-4.23L7.2,573.43l1-5.41,1.26-8,5.26-8.06s2.22-4.29-1.24-5.12A29.46,29.46,0,0,0,7.2,546a137.85,137.85,0,0,1-3.06-16.22c-.55-6.24,3.33-17.48,7.22-18.59s5.26-2.5,5.26-2.5l1-6.64s-.7-2.23,2.08-4.45,34.25-19.42,34.25-19.42S71.68,488.69,76,487.72s7.35-5.4,9.29-4,2.5,5.54,8.87,5.26a24.17,24.17,0,0,0,10.69-2.9l16.09,1.39,4.29-.69S139,469,137.14,466.63s-10.67-13.44-12.61-14.14-22.33,1.11-22.33,1.11l-.71,8-10,.69-4.16,2.37-4.15-.56-3.76,1.52-.68,3.06-6.94-.15-3-1.67s34.59-27.18,41-29.12,38.29-13.67,38.29-13.67l20.16-8,8.13-6.66,14.24-4.07,3-2.22,25.53-30.7,18.35-16,2-2.58h.05l20.15,8.69h6.29l46.41,20,3-3.14,17.07,12,6.41,4.48Z"/><path class="cls-3" d="M358.91,595.35l-3.89,5.2-2.69,4-11.88,11h-1.76l.1,2.32h3.53l-1,21.43-9.74-.56L330,644.24l-18.36-7.89,0,0-.06.11c-.05.09-.13.2-.23.36-.41.66-1.19,1.88-2.17,3.42l-.38.59-.39.63c-.39.61-.8,1.24-1.21,1.9h0c-.42.66-.85,1.34-1.29,2.05-.85,1.34-1.71,2.71-2.5,4-.31.47-.6.93-.86,1.37s-.49.78-.72,1.16l-1.29,2.07c-1.18,1.92-3.69,6.52-6.34,11.49-4.33,8-9,16.92-9,16.92l-.08.78-.08.15-.16,2.09-1.18,15.85v0l-.07,0-.21-.06-.34-.08c-.2-.05-.43-.1-.7-.18l-.61-.13a2.14,2.14,0,0,1-.34-.09c-.36-.08-.74-.14-1.14-.22-.13,0-.27-.05-.41-.09l-.69-.13c-1.14-.21-2.43-.41-3.79-.55h-.15a1.15,1.15,0,0,0-.26,0,7.28,7.28,0,0,0-.93-.07.3.3,0,0,0-.13,0l-.54,0-.14,0c-.49,0-1,0-1.46,0s-1,0-1.52,0c-2.25.13-4.36.39-6.48.61h-.1l-1.09.09-1.52.12c-1.41.1-2.83.14-4.32.1l-1.47-.09c-.45,0-.93-.06-1.4-.13s-1-.09-1.44-.18c-.77-.11-1.55-.24-2.32-.39-.54-.08-1.06-.18-1.58-.28h0c-.8-.14-1.57-.29-2.32-.44l-1.44-.28-1.37-.29-.72-.15c-.55-.11-1.07-.24-1.53-.34l-.92-.21c-1.06-.23-1.66-.38-1.66-.38L233,684l-18.26-15.75-4.09-6.53-5.32-7.68-.26-.38,48-40.75,1.75-1.49,3.2-2.55,5.47-4.34.79-.62,15.16-28.47,1.66-4.63,1.85,1.47,1.11.2,25.33-38.65,4.2-3.31,8.38,9.08-1-.66a82.08,82.08,0,0,1,4.25,9.63c.93,3.16,1.76,8.36,1.76,8.36s6.68,5.83,9.38,9.26S349.83,586,352.8,589.68A26.57,26.57,0,0,0,358.91,595.35Z"/><path class="cls-4" d="M405.55,285.9a5.71,5.71,0,0,1-.6,1.34c-.12.13-.3.34-.51.61l0-.38Z"/><path class="cls-5" d="M405.55,285.9a5.71,5.71,0,0,1-.6,1.34c-.12.13-.3.34-.51.61l0-.38Z"/><path class="cls-6" d="M141.86,775.29l-2.37,4.17c-2.74-2.73-13.92-10.08-15.5-11.73s-9.23-6.12-10.75-7.1a23.89,23.89,0,0,1-3.87-3.7c-1-1.45-7.78-10-9-11.86a34.33,34.33,0,0,0-4.62-4.86l-11.11-8.79.2.11V728.2l-4.25-3.51V723.1l14,9.64,17.93,14.43,12.39,15,11.1,9.25Z"/><path class="cls-7" d="M198,667.18h0l-17.74,33.9-.37.7L174,713.06l-11.81,22.12-3.2,4.46-3.76,9.58-3.63,4.59c-.19.54-.37,1.1-.52,1.65l0,.13a46.64,46.64,0,0,0-1.16,5.3l-.19.36h0L148,764.51l-.05.1-6.09,10.68-5.82-3.9-11.1-9.25-12.39-15L94.62,732.74l-14-9.64v-2.3l1.29-1.11V696.4h.83v-5.85h-1v-2.32h.68V686.3h1v-2H84v-2.34h.7v-.72h-.73v-5H85.6v-5.93l1-1v-4.53l2.27-2.27v-4.26h.28v-3.66h2.22v-4l.74.1.24-2.86,3.42,0s.06-2.14.18-3.66a8.24,8.24,0,0,1,.08-.85c0-.1,0-.18,0-.24.2-1.23,1-1.28,3-3.26s5.23-2.71,5.67-3.36a47.91,47.91,0,0,1,4.25-6.86,40.81,40.81,0,0,1,5.49-5.64c1-.93,2.22-.78,3.46-1.58s2.52-4,2.66-5,3.86-3.66,3.86-3.66l4-7.68-2.91-3.54.31-.53,1.65-2.79.15-.18v-2.12l3.44-6.42,6.93,3.25,1-2.71,3.36,2.46-.6,1.83,8.61,2.72-.84,1.86-2.82,6.34,0,2.62,1-1.47.78-1.15,8.25,8-.36.36-1.91,1.91,1.3,1.26,3.88,3.72.49.46.72-1.08,1-1.48s10.93,7.66,16.86,12.59l.65.57a24.6,24.6,0,0,1,2.66,2.63c2.84,3.2,3.2,5.29,3.2,5.29Z"/><path class="cls-8" d="M245.84,748.6v2.16l-10.78,29.48v14.48s-16.76,4.16-27.13,7.08-27.11,5.49-27.11,5.49l-.71.49h-.34l-.83-1.79-7.73-1.47-5.42-3.76L150,789.85l-10.5-10.39,2.37-4.17,19,12.74,6.47-1.66,9.61-1.49,42.91-13.33,16.92-6.73,3-2.77L241,756.3l1.58-3.55,3.24-4.47Z"/><path class="cls-9" d="M245.78,748.28l-3.24,4.47L241,756.3l-1.19,5.75-3,2.77-16.92,6.73L176.9,784.88l-9.61,1.49L160.82,788l-19-12.74L148,764.61l.05-.1,1.65-2.9,0-.35h0l.19-.36a46.64,46.64,0,0,1,1.16-5.3l0-.13.52-1.65,3.63-4.59,3.76-9.58,3.2-4.46L174,713.06l5.88-11.27.37-.7L198,667.19h0l7-13.45v0l.3.31,5.32,7.68,4.09,6.53L233,684l5.49,13.42s.6.15,1.66.38l.72,1.44-.24.24.7,9.12,1.32,2.43.18,3.45v.06l.23,4.48-.47,7.51.34,8.69,1.42,6.5,0,0h0Z"/><path class="cls-6" d="M484.15,630.42c-.91,3.06-5.65,14.56-5.65,14.56l-8.07,21.43-4.74,8.72a12.71,12.71,0,0,1-.55,1.27.07.07,0,0,1,0,0,4.91,4.91,0,0,1-1.55,1.84c-1.31.74-3.53,1.49-3.53,2.22S455.86,702,455.86,702s-.36,1.29-.9,2.94c-1,3.07-2.7,7.42-4,7.17-2-.37-6.4-.73-6.4-.73l-1.29,1.75,1.29,1.86a93.05,93.05,0,0,0-1.11,9.83c0,11.22,4,16.06,3.8,20.88,0,0-2.22,6.58-2.22,10.84s1.62,8.07,1.67,12.63c.1,9.92-4.92,12.61-4.92,22.35,0,0,.18,6.4,1.59,8.72s5.19,6.58,5.19,11-.2,5.85.74,7.89,3,4.36,1.94,9.74-1.29,7.61-1.85,10.39a25.84,25.84,0,0,1-2.14,5.84l-31.16-6.4-.48,3.53-21.79-4.54.56-1.49-.75-14.95-1.95-.35,1.11-1-8.9-12.34-1.84-3-5.57-7.24a12.73,12.73,0,0,1-3.43.84c-1.59.1-1.87-1.29-3.73-1.29s-7.79,1.76-11.68.55.1-1.58-8.35-2.69-6.4-1.49-6.4-1.49l2.5-4.82L330,777.73,346.76,742s-2,.46-6.21-.93-11.42-4.26-11.42-4.26l.76-2.52s-20.6-5.1-20.23-6.4,1.21-3.43,1.21-3.43a53.46,53.46,0,0,0-7.71-.84c-3.15,0-10.29-.37-10.29-.37l1.39,7.23-3.63-.45-1.39,1.3-2-5.48L283,727.58h-2.23L280,724.3l-5.31.37.8,8.22-19.73-9.28-11.94-18.56-.22-.42,1.85,0,.28-4.94,2.74-.18h0c.52.1,1,.2,1.58.28l.23,1.57,4.17.28,2.23-1.06c1.49,0,2.91,0,4.32-.1l1.52-.12,1.09-.09h.1l11.46-.46h.15c1.36.14,2.65.34,3.79.55l.69.13c.14,0,.28,0,.41.09l1.79,1.2,1.55-.44.07,0v0l15.8-4.48s11-6.79,16.79-9,8,2.23,23.29-13.46,24.27-13.86,24.27-13.86l24.13-13-2.21-3.61,7.49-11.64,5.27-2.23-3.33-6.92,18.31-19.15,7.63-17,2.87,1.47s28.61,20.43,40.29,21.09,7.67,2.22,10.76.24,3.15-2.5,3.15-2.5l.08.08c.43.51,2.62,3.34,4.28,10.52C484.35,625.86,485.08,627.35,484.15,630.42Z"/><path class="cls-7" d="M246.12,699.09c.75.15,1.52.3,2.32.44l-2.74.18-.28,4.94-1.85,0-2.71-5.37-.72-1.44.92.21c.46.1,1,.23,1.53.34l.72.15,1.37.29C245.14,698.91,245.63,699,246.12,699.09Z"/><path class="cls-7" d="M255.2,700.51l1.47.09-2.23,1.06-4.17-.28-.23-1.57c.77.15,1.55.28,2.32.39.49.09,1,.13,1.44.18S254.75,700.48,255.2,700.51Z"/><path class="cls-7" d="M274.9,699.8a1.15,1.15,0,0,1,.26,0l-11.46.46c2.12-.22,4.23-.48,6.48-.61.51,0,1,0,1.52,0s1,0,1.46,0l.14,0,.54,0a.3.3,0,0,1,.13,0C274.28,699.75,274.59,699.76,274.9,699.8Z"/><path class="cls-7" d="M283.33,701.3l.21.06-1.55.44-1.79-1.2,1.14.22a2.14,2.14,0,0,0,.34.09l.61.13c.27.08.5.13.7.18Z"/><path class="cls-7" d="M413.42,603.94l-18.31,19.15,3.33,6.92-5.27,2.23-7.49,11.64,2.21,3.61-24.13,13s-9-1.8-24.27,13.86S322,685.63,316.2,687.85s-16.79,9-16.79,9l-15.8,4.48,1.18-15.85.24-2.24.08-.78s4.69-8.92,9-16.92c2.65-5,5.16-9.57,6.34-11.49l1.29-2.07c.23-.38.47-.77.72-1.16s.55-.9.86-1.37c.79-1.29,1.65-2.66,2.5-4,.44-.71.87-1.39,1.29-2.05h0c.43-.66.82-1.29,1.21-1.9l.39-.63.38-.59c1-1.54,1.76-2.76,2.17-3.42.1-.16.18-.27.23-.36l.06-.11,0,0L330,644.24l1.58-5.57,9.74.56,1-21.43h-3.53l-.1-2.32h1.76l11.88-11,2.69-4,3.89-5.2a26.57,26.57,0,0,1-6.11-5.67c-3-3.7-13.83-20-16.51-23.47s-9.38-9.26-9.38-9.26-.83-5.2-1.76-8.36A82.08,82.08,0,0,0,320.9,539l1,.66,6.75,4.24,4.08-.19,1.75-1.75s3.72-.93,4.74-.57,7.05.38,9,.38,4.08-1.57,10-1,21.05,2.68,21.05,2.68-1,13.74,1.44,16.61,6.94,8.14,11.64,10.85,13.17,8.23,13.17,8.23L421.05,587Z"/><path class="cls-8" d="M360.89,175.23c-.36.18-.7.32-1,.44-4.58,1.66-15.26,15.43-15.26,15.43l-.92,11.67a34.45,34.45,0,0,1-5.37,18.49C332.42,230.86,308,249,308,249s-9.7,9-12.35,11-14.47,13.23-14.47,13.23-9.6,21.44-11.64,25.69-6.9,25.3-6.9,25.3l-9.15,11.37-14.09,18.35h0l-5.16,1,2.95-25.19,6.16,1.8-5.8-2.1a223.09,223.09,0,0,1,20.6-50.34l5.41-9.64,13.29-17.07,21.66-22.91,6.44-4.2,4.47-8.68L318,185.12l1.54-53.56.91-3.2,1-3.64,2.51-2,7.47,11.61,18.13,28.24.37.17.46.72L358,167Z"/><path class="cls-7" d="M416.92,241.05l-2.14,2.14-6,6-6.63,3.39,4.56,4.91,1,22.58-.93,4.15-1.21,1.68-1.13,1.57,0,.37c-1,1.11-2.81,3.06-3.42,3.6s-1,5-1,5l2,4L398.72,304l-2.5,1.57-4-2.67-6.62,3.81.66,1.81.27,3.15-4.37,3.63-2.42,1.8-1.49,3.05-2.61,1.34-4.1.67v2.47l-.39,2.69,1.39,4-3.29,4.86-1.47,4.85L366.46,348v2.58l-.43.57-5.58,6.29L357,365.77l-.65,1.57v4.19l-3.73,3.26-1.17,5.88-.51,2.49-1.49,4.2L348,392.88l.59,3h-9.8l-6.41-4.48-17.07-12-3,3.14-46.41-20h-6.29l-20.15-8.69h-.05l14.09-18.35,9.15-11.37s4.87-21,6.9-25.3,11.64-25.69,11.64-25.69S293,261.93,295.66,260,308,249,308,249s24.41-18.18,30.32-27.78a34.45,34.45,0,0,0,5.37-18.49l.92-11.67s10.68-13.77,15.26-15.43c.31-.12.65-.26,1-.44l2.73,7.8.49.44,7.54,6.83L393,198.4c2.84,1.08,9.09,5.85,13.36,10.34,0,0,0,.07.08.09.59.55,1.09,1.06,1.49,1.51,3.08,3.58,3.16,6.42,3.16,6.42s-.06.33-.14.9v0c.73,5.52-.25,12.25,0,15.06C411.3,236.73,416.92,241.05,416.92,241.05Z"/><path class="cls-8" d="M816.35,403.32s-4.2.3-8.38,1-8.68,5.57-8.68,5.57h-6.14c-2.51,0-6.29,2.44-7.27,3.14s-.7,1.59-1.83,3.58-3.35,5.72-4.46,8-4.19,6.44-7.54,13.45-15.1,7-19.85,10.86-5.46,7.43-6,12.45-2.39,4.85-4.9,7-5.31,4.85-5.31,4.85c-3.35,2.86-2.79,14.12-2.79,14.12l-51-20.11-85-21.17-25.43,30.59-17,13.74-7.55,9.43-6.44,8.57L534,557.88s-7.27,9.42-22.94,23.73-26.82,19.16-26.82,19.16l-6.08,6.6-.08-.08s-.06.54-3.15,2.5.93.39-10.76-.24-40.29-21.09-40.29-21.09L421.05,587l7.35-16.34L427,567.89l-.47-1.76.19-4.62,1.29-1.85v-3.89l-1.48-3.13s-.56-19.25-.56-19.8,1.86-2.3,1.86-2.3l-.19-5.1-.56-2.76-.73-6.11a37.94,37.94,0,0,0,10.53,1.37c4.63-.31,10.74,4.18,10.74,4.18s-.74-13.86-1.11-18.13-3.52-9.42-3.52-9.42l11.29-.74,11.27-34.77-10.71-8.87,14.42-19.05,9.42-5.24h17L507,412.65l-.38-19.42L523.45,379l4.25-11.82-1.49-14.07,6.11-20L527,314.64l1.67-9.8-7-10.36-7.17-15.33,3.2,2.15.75.51,4.62-.72,4.15,3.77,2.93,2.65,2.22-.44h0l.33-.13,23.26,12.53,6.23,3.37,4.45,2.38,0,0,3.5.57s4.6,1.57,10.4,4.23l0,0,13.26,7.46,2.27,1.28,7.24,5.81,7.55.08,0-.45,1.78,0L628,329.42l4-.83,25.87-23.44,17-27.07.08-.14s.85-.23,9.07-1.36c5.44-.75,7.17-.28,11.81.79,20.68,4.72,23.75,6.28,30.46,16.3s16.78,13.72,25.44,28.31,33.82,33.45,33.82,33.45l23.76,20.73Z"/><path class="cls-9" d="M526.21,353.09l1.49,14.07L523.45,379l-16.84,14.25.38,19.42L495.7,425.9h-17l-9.42,5.24-14.42,19.05,10.71,8.87-11.27,34.77-11.29.74s3.14,5.18,3.52,9.42,1.11,18.13,1.11,18.13-6.11-4.49-10.74-4.18a37.94,37.94,0,0,1-10.53-1.37l.73,6.11.56,2.76.19,5.1s-1.86,1.74-1.86,2.3.56,19.8.56,19.8l1.48,3.13v3.89l-1.29,1.85-.19,4.62.47,1.76,1.39,2.76L421.05,587l-15.47-7.91s-8.48-5.5-13.17-8.23-9.19-8-11.64-10.85-1.44-16.61-1.44-16.61-15.13-2.12-21.05-2.68-8.07,1-10,1-8,0-9-.38-4.74.57-4.74.57l-1.75,1.75-4.08.19-6.75-4.24-8.38-9.08.25-.2v-4.07h-3.7v-4.44l1.47-1.29-.18-7.78,3.52-2.22.73-10.53H311l-6.47-21.78,16.78-31.62,5-13.92V419.75l15.72-14.42h6.47v-9.44l-.59-3,1.48-5.52,1.49-4.2.51-2.49,1.17-5.88,3.73-3.26v-4.19l.65-1.57,3.45-8.33,5.58-6.29.43-.57V348l1.32-6.95,1.47-4.85,3.29-4.86-1.39-4,.39-2.69v-2.47l4.1-.67,2.61-1.34,1.49-3.05,2.42-1.8,4.37-3.63-.27-3.15-.66-1.81,6.62-3.81,4,2.67,2.5-1.57,3.23-3.53-2-4s.28-4.4,1-5,2.44-2.49,3.42-3.6l.5-.6a5.42,5.42,0,0,0,.61-1.34l1.21-1.68.93-4.15-1-22.58-4.56-4.91,6.63-3.39,6-6,2.14-2.14,2.79,2.29h6.84l2.24,2.14,3.07.29,1.85.18,2.48.25.87-.07.93-.08,5.7-.46,1.45-.11,2.8,3h3.92l3.7,1.48,1.33.53,1.34-.23.09.29,2.29-.08,1.8.54,1.86.08.1.42,1.45.12.3,1s5.66,2.68,8.65,3.84a4.27,4.27,0,0,1,.43.18l1.81,1.05s0,0,0,0l1.51.89,1.25,3,12.73,6.3,1.94-1.29,3.42,2,3.72,2.17.13,1,.15,1.16.1,0,1.32.17,1.94.27.82.11,8.3,5.6,0,0,7.17,15.33,7,10.36-1.67,9.8,5.36,18.49Z"/><path class="cls-10" d="M675,277.94l-.08.14-17,27.07L632,328.59l-4,.83-15.34-5.13-1.78,0,0,.45-7.55-.08-7.24-5.81-2.27-1.28-13.26-7.46,0,0c-5.8-2.66-10.4-4.23-10.4-4.23l-3.5-.57,0,0-4.45-2.38-6.23-3.37L532.63,287l-.33.13h0l-2.22.44-2.93-2.65-2.53-2.68L523,281.09l-.6-.41-1.62.44-2.82.35-.33-.17-3.2-2.15,0,0h0l-8.3-5.6-.82-.11-1.94-.27L502,273l-.25-1.18-.13-1-3.72-2.17-4.4-5.59-2.77-3.14-3.89-20.53L479,225.88l17.89-10.13L508,208.68l-.56-6.11h-3.87l-.37-2,7.85-11.09.66-3.61-15.54.64L489,182.79l-.63-4.9,9.39-17.48h-19l-7.9,3s-1-14.49-1.33-14.57S461,134.06,461,134.06l-28.72,6.52a12.12,12.12,0,0,1-4.85,3.89c-3.05,1.24-10.5.55-10.5.55l-13.77-11-2.76.56-.71,1.11-3.33-.15-2.35-4.7h-8.32s-1.66,14.55-2.22,17.47-2.22,9-5,13.17c-2.59,3.89-12.52,11.39-17.57,13.71L358,167l-7.61-3.48-.46-.72-.37-.17-18.13-28.24L324,122.76l-2.51,2-1,3.64V116.71l3.12-32.45,16-38.45,26.24-32.9,10.55-7.45,37-5.11L432,6.06l12,5,6.66,6,9.67,5.35,20.68,2,27.67,3,4.33-.5,10.18,4.51,37.5,28,14.69,14,34.84,46,15.34,49.35,5.49,13,8.51,2.16,4.16,6.84v8.5l-4.51,7.84,3.52,21,13.33.17,4.83,11.33,6.68,6.5L674.4,258Z"/><path class="cls-11" d="M496.17,186.48l15.54-.64-.66,3.61-7.85,11.09.37,2h3.87l.56,6.11-11.09,7.07L479,225.88l7.81,13.49,3.89,20.53,2.77,3.14,4.4,5.59-3.42-2-1.94,1.29-12.73-6.3-1.25-3-1.51-.89s0,0,0,0l-1.81-1.05a4.27,4.27,0,0,0-.43-.18c-3-1.16-8.65-3.84-8.65-3.84l-.3-1-1.45-.12-.1-.42-1.86-.08-1.8-.54-2.29.08-.09-.29-1.34.23-1.33-.53-3.7-1.48h-3.92l-2.8-3-1.45.11-5.7.46-.39-.26-.54.34-.87.07-2.48-.25-1.85-.18-3.07-.29-2.24-2.14h-6.84l-2.79-2.29s-5.62-4.32-6-8.31c-.26-2.81.72-9.54,0-15.06v0c.08-.57.14-.9.14-.9s-.08-2.84-3.16-6.42c-.4-.45-.9-1-1.49-1.51,0,0-.07,0-.08-.09-4.27-4.49-10.52-9.26-13.36-10.34l-21.34-8.1-7.54-6.83-.49-.44-2.73-7.8c5.05-2.32,15-9.82,17.57-13.71,2.78-4.16,4.45-10.26,5-13.17s2.22-17.47,2.22-17.47H394l2.35,4.7,3.33.15.71-1.11,2.76-.56,13.77,11s7.45.69,10.5-.55a12.12,12.12,0,0,0,4.85-3.89L461,134.06s8.25,14.7,8.52,14.77,1.33,14.57,1.33,14.57l7.9-3h19l-9.39,17.48.63,4.9Z"/><polygon class="cls-11" points="514.42 279.15 514.37 279.11 514.4 279.11 514.42 279.15"/><path class="cls-12" d="M526.21,353.09l1.49,14.07L523.45,379l-16.84,14.25.38,19.42L495.7,425.9h-17l-9.42,5.24-14.42,19.05,10.71,8.87-11.27,34.77-11.29.74s3.14,5.18,3.52,9.42,1.11,18.13,1.11,18.13-6.11-4.49-10.74-4.18a37.94,37.94,0,0,1-10.53-1.37l.73,6.11.56,2.76.19,5.1s-1.86,1.74-1.86,2.3.56,19.8.56,19.8l1.48,3.13v3.89l-1.29,1.85-.19,4.62.47,1.76,1.39,2.76L421.05,587l-7.63,17-18.31,19.15,3.33,6.92-5.27,2.23-7.49,11.64,2.21,3.61-24.13,13s-9-1.8-24.27,13.86S322,685.63,316.2,687.85s-16.79,9-16.79,9l-15.8,4.48h-.07l-1.55.44-1.79-1.2-1.34-.9-3.55.13h-.15l-11.46.46h-.1l-6.81.26-.12.05-2.23,1.06-4.17-.28-.23-1.57,0-.37-1.53.09h0l-2.74.18-.28,4.94-1.85,0-2.28,0v3.26l1.63,1.64-.1,5v.06l-.24,12-.23,11.22,2,4,0,0h0l1.48,3v3.4l-.06.1-3.24,4.47L241,756.3l-1.19,5.75-3,2.77-16.92,6.73L176.9,784.88l-9.61,1.49L160.82,788l-19-12.74-5.82-3.9-11.1-9.25-12.39-15L94.62,732.74l-14-9.64L75,719.25l-8.51-5.37-2.32-3.08A10.4,10.4,0,0,1,63,700.25l4.82-10.73-1.67-25.25,13.59-2.91L27.3,608.24l24.13-15.39s2.5-1.66.83-3.33-5.68.9-5.68.9l-6.8,1.88H36.6l-.28-1.88H29.93l-.55,1.73H21.75l-.56,2.22-14.42-.28-1.24-3.67v-4.23L7.2,573.43l1-5.41,1.26-8,5.26-8.06s2.22-4.29-1.24-5.12A29.46,29.46,0,0,0,7.2,546a137.85,137.85,0,0,1-3.06-16.22c-.55-6.24,3.33-17.48,7.22-18.59s5.26-2.5,5.26-2.5l1-6.64s-.7-2.23,2.08-4.45,34.25-19.42,34.25-19.42S71.68,488.69,76,487.72s7.35-5.4,9.29-4,2.5,5.54,8.87,5.26a24.17,24.17,0,0,0,10.69-2.9l16.09,1.39,4.29-.69S139,469,137.14,466.63s-10.67-13.44-12.61-14.14-22.33,1.11-22.33,1.11l-.71,8-10,.69-4.16,2.37-4.15-.56-3.76,1.52-.68,3.06-6.94-.15-3-1.67s34.59-27.18,41-29.12,38.29-13.67,38.29-13.67l20.16-8,8.13-6.66,14.24-4.07,3-2.22,25.53-30.7,18.35-16,2-2.58h0l14.09-18.35,9.15-11.37s4.87-21,6.9-25.3,11.64-25.69,11.64-25.69S293,261.93,295.66,260,308,249,308,249s24.41-18.18,30.32-27.78a34.45,34.45,0,0,0,5.37-18.49l.92-11.67s10.68-13.77,15.26-15.43c.31-.12.65-.26,1-.44,5.05-2.32,15-9.82,17.57-13.71,2.78-4.16,4.45-10.26,5-13.17s2.22-17.47,2.22-17.47H394l2.35,4.7,3.33.15.71-1.11,2.76-.56,13.77,11s7.45.69,10.5-.55a12.12,12.12,0,0,0,4.85-3.89L461,134.06s8.25,14.7,8.52,14.77,1.33,14.57,1.33,14.57l7.9-3h19l-9.39,17.48.63,4.9,7.22,3.69,15.54-.64-.66,3.61-7.85,11.09.37,2h3.87l.56,6.11-11.09,7.07L479,225.88l7.81,13.49,3.89,20.53,2.77,3.14,4.4,5.59,7.81,9.94,8.67.54h0l0,0,7.17,15.33,7,10.36-1.67,9.8,5.36,18.49Z"/><g class="cls-13"><text class="cls-14" transform="translate(104 552.79)">Asunción</text></g><text class="cls-15" transform="translate(120.29 691.83)">L<tspan class="cls-16" x="16.3" y="0">A</tspan></text><text class="cls-14" transform="translate(178.17 751.42)">VE</text><text class="cls-14" transform="translate(245.81 652.72)">FM</text><text class="cls-14" transform="translate(372.12 709.38)">SL</text><text class="cls-14" transform="translate(342.75 471.85)">Luque</text><text class="cls-14" transform="translate(294.37 318.81)">MRA</text><text class="cls-14" transform="translate(406.02 91.76)">Limpio</text></g></g></svg>